<svg id="Layer_1" data-name="Layer 1" xmlns="http://www.w3.org/2000/svg" viewBox="0 0 94.2 94.22"><defs><style>.cls-1{fill:#fff;}</style></defs><path class="cls-1" d="M56.36,56.36a6.54,6.54,0,0,0,.11-9.22l-9.33,9.33A6.54,6.54,0,0,0,56.36,56.36Z"/><path class="cls-1" d="M75.49,75.49C62.17,88.81,40.77,89,27.67,75.94l-6.14,6.14A41.46,41.46,0,0,0,51.41,94.22a42.92,42.92,0,0,0,30.11-12.7c16.69-16.68,16.94-43.59.56-60l-6.14,6.14C89,40.77,88.81,62.17,75.49,75.49Z"/><path class="cls-1" d="M62.91,62.91a15.88,15.88,0,0,1-22.43.23l-6.14,6.14a23.91,23.91,0,0,0,17.22,7A24.81,24.81,0,0,0,69.28,34.34l-6.14,6.14A15.88,15.88,0,0,1,62.91,62.91Z"/><path class="cls-1" d="M21.51,82.06C5.11,65.66,5.35,38.73,22,22s43.62-16.93,60-.53l0,0,6.67-6.66,0,0c-20-20-52.83-19.75-73.23.65S-5.2,68.68,14.84,88.72l0,0,6.66-6.67Z"/><path class="cls-1" d="M34.31,69.25A24.71,24.71,0,0,1,69.25,34.31l0,0,6.66-6.67,0,0c-13.1-13.1-34.52-12.91-47.85.42s-13.52,34.75-.42,47.85l0,0,6.67-6.66Z"/><path class="cls-1" d="M47.12,56.45a6.6,6.6,0,0,1,9.33-9.33s0,0,0,0l6.67-6.66,0,0A16,16,0,0,0,40.45,63.11l0,0,6.66-6.67Z"/></svg>